<?xml version="1.0" encoding="UTF-8"?>
<svg version="1.1" xmlns="http://www.w3.org/2000/svg" width="313" height="313">
<path d="M0 0 C1.98 0.495 1.98 0.495 4 1 C3.49357808 5.35522853 2.61588503 8.44239635 0 12 C-0.66 12 -1.32 12 -2 12 C-2.33 13.32 -2.66 14.64 -3 16 C-3.66 16 -4.32 16 -5 16 C-5.26296875 16.88042969 -5.5259375 17.76085937 -5.796875 18.66796875 C-6.97278262 21.92462199 -8.35312918 24.42874368 -10.25 27.3125 C-10.87390625 28.26769531 -11.4978125 29.22289063 -12.140625 30.20703125 C-13.06101562 31.58955078 -13.06101562 31.58955078 -14 33 C-14.51046875 33.76699219 -15.0209375 34.53398438 -15.546875 35.32421875 C-16.52064057 36.78224946 -17.49591732 38.23927198 -18.47265625 39.6953125 C-21.38284204 44.08664145 -24.18347125 48.54826802 -27 53 C-33.99742843 64.04678773 -41.09941204 75.02583034 -48.24609375 85.9765625 C-53.79998495 94.49127316 -59.3093814 103.02532133 -64.6640625 111.66699219 C-67.32267555 115.94957472 -70.06821515 120.1578513 -72.94140625 124.30078125 C-74.17317246 126.13079584 -74.17317246 126.13079584 -75 129 C-75.66 129 -76.32 129 -77 129 C-77.25136719 129.68964844 -77.50273437 130.37929687 -77.76171875 131.08984375 C-79.18103976 134.425472 -80.93481362 137.47227165 -82.8125 140.5625 C-83.19994385 141.20453369 -83.5873877 141.84656738 -83.98657227 142.50805664 C-87.89863323 148.93332962 -92.01007329 155.22694479 -96.12792969 161.52148438 C-99.49376122 166.66922672 -102.81464263 171.83952287 -106.0625 177.0625 C-106.65708008 178.01866211 -106.65708008 178.01866211 -107.26367188 178.99414062 C-108.07851398 180.30497358 -108.89329166 181.61584657 -109.70800781 182.92675781 C-116.06253372 193.12377861 -122.50134381 203.26928646 -129 213.375 C-129.66696899 214.41805298 -129.66696899 214.41805298 -130.34741211 215.48217773 C-132.7207143 219.15800694 -135.19229083 222.63334873 -138 226 C-140.96175123 225.38722388 -142.38058783 224.74627478 -145 223 C-145.93935761 221.12128479 -146.87300851 219.23937278 -147.76953125 217.33984375 C-149.1357034 214.74194813 -150.72410208 212.44490361 -152.4375 210.0625 C-155.22608907 206.18350111 -157.61702399 202.25271174 -159.8671875 198.04296875 C-160.92570301 196.13399077 -162.07062856 194.35583184 -163.3125 192.5625 C-165 190 -165 190 -165 188 C-165.66 188 -166.32 188 -167 188 C-167.37125 187.195625 -167.7425 186.39125 -168.125 185.5625 C-169.9911338 181.78515671 -172.38335812 178.40045116 -174.79296875 174.953125 C-176 173 -176 173 -176 171 C-176.66 171 -177.32 171 -178 171 C-178.495 168.525 -178.495 168.525 -179 166 C-179.66 166 -180.32 166 -181 166 C-181.33 165.01 -181.66 164.02 -182 163 C-182.66 162.67 -183.32 162.34 -184 162 C-187 156.57692308 -187 156.57692308 -187 154 C-187.66 154 -188.32 154 -189 154 C-189.495 151.525 -189.495 151.525 -190 149 C-190.66 149 -191.32 149 -192 149 C-192.5465625 148.03191406 -193.093125 147.06382812 -193.65625 146.06640625 C-196.18706923 141.63858651 -198.83737127 137.28694393 -201.5 132.9375 C-201.97308594 132.16083984 -202.44617188 131.38417969 -202.93359375 130.58398438 C-205.53633261 126.32659575 -208.21133063 122.13915706 -211 118 C-212.1098288 116.27446199 -213.21408309 114.54532477 -214.3125 112.8125 C-215.21548828 111.389375 -215.21548828 111.389375 -216.13671875 109.9375 C-216.75160156 108.968125 -217.36648437 107.99875 -218 107 C-219.20815215 105.1040512 -220.4164815 103.2082153 -221.625 101.3125 C-223.59590279 98.21599273 -225.55861714 95.11509473 -227.5 92 C-229.5318025 88.74373374 -231.57383097 85.49410835 -233.625 82.25 C-234.19476563 81.34765625 -234.76453125 80.4453125 -235.3515625 79.515625 C-236.82277039 77.27046414 -238.38902076 75.14487726 -240 73 C-240.66666667 71.66666667 -241.33333333 70.33333333 -242 69 C-242.99 68.01 -242.99 68.01 -244 67 C-244.67823523 65.67251396 -245.34280613 64.33802782 -246 63 C-247.10603478 61.19656397 -248.23274732 59.40571706 -249.375 57.625 C-250.30119141 56.17480469 -250.30119141 56.17480469 -251.24609375 54.6953125 C-252.60895643 52.60093555 -254.00365805 50.54540895 -255.4375 48.5 C-257 46 -257 46 -257 43 C-257.66 43 -258.32 43 -259 43 C-260.26513672 41.25927734 -260.26513672 41.25927734 -261.6796875 38.8359375 C-262.19660156 37.96066406 -262.71351563 37.08539063 -263.24609375 36.18359375 C-263.78363281 35.25675781 -264.32117188 34.32992187 -264.875 33.375 C-270.19064973 23.64433963 -270.19064973 23.64433963 -277 15 C-276.67 14.34 -276.34 13.68 -276 13 C-276.66 13 -277.32 13 -278 13 C-278 12.34 -278 11.68 -278 11 C-278.66 11 -279.32 11 -280 11 C-280.67154933 9.71086513 -281.33708859 8.41859796 -282 7.125 C-282.37125 6.40570313 -282.7425 5.68640625 -283.125 4.9453125 C-284 3 -284 3 -284 1 C-279.90037483 0.71295757 -277.55043331 1.45871576 -273.98046875 3.44921875 C-272.56991211 4.22749023 -272.56991211 4.22749023 -271.13085938 5.02148438 C-270.15955078 5.57126953 -269.18824219 6.12105469 -268.1875 6.6875 C-267.22779297 7.21794922 -266.26808594 7.74839844 -265.27929688 8.29492188 C-262.50455789 9.838548 -259.7493285 11.41162959 -257 13 C-256.22011719 13.44255127 -255.44023437 13.88510254 -254.63671875 14.34106445 C-250.62297974 16.70715991 -247.98352498 18.67530839 -245.625 22.8125 C-245.05652344 23.77285156 -244.48804688 24.73320313 -243.90234375 25.72265625 C-243.27457031 26.80417969 -242.64679688 27.88570312 -242 29 C-240.41443339 31.59500473 -238.8014264 34.17256327 -237.1875 36.75 C-236.76500977 37.42885254 -236.34251953 38.10770508 -235.90722656 38.80712891 C-232.98084404 43.49265382 -229.95959205 48.10488125 -226.875 52.6875 C-223.1722674 58.19138874 -219.6348028 63.7711286 -216.18359375 69.4375 C-208.82012465 81.50127653 -201.13783097 93.37109969 -193.4453125 105.2265625 C-189.31992445 111.58614239 -185.26680023 117.99089598 -181.22265625 124.40234375 C-171.22397453 140.34290241 -171.22397453 140.34290241 -160.92578125 156.08984375 C-159.26073849 158.60598342 -157.70495626 161.14364862 -156.1875 163.75 C-153.48273208 168.32251047 -150.48365363 172.60537617 -147.3203125 176.87109375 C-146 179 -146 179 -146 182 C-144.61135566 182.30556226 -143.21318736 182.56800808 -141.8125 182.8125 C-141.03519531 182.96332031 -140.25789062 183.11414063 -139.45703125 183.26953125 C-135.68254314 182.85547771 -134.3973398 180.83743117 -132 178 C-130.72960679 176.12389189 -129.52356616 174.20306844 -128.375 172.25 C-127.68288187 171.09261631 -126.98876472 169.93642639 -126.29296875 168.78125 C-125.92478027 168.16894531 -125.5565918 167.55664062 -125.17724609 166.92578125 C-123.07841595 163.49243986 -120.88126167 160.12317433 -118.6875 156.75 C-118.22190674 156.03279785 -117.75631348 155.3155957 -117.27661133 154.57666016 C-115.8521599 152.38373219 -114.42618987 150.19179765 -113 148 C-103.05129279 132.6981094 -93.22519719 117.32237307 -83.69140625 101.7578125 C-81.48336225 98.1576299 -79.24466571 94.57743597 -77 91 C-77.45375 91.66 -77.9075 92.32 -78.375 93 C-78.91125 93.66 -79.4475 94.32 -80 95 C-80.66 95 -81.32 95 -82 95 C-82.24363281 95.55429688 -82.48726562 96.10859375 -82.73828125 96.6796875 C-84.25976026 99.47770154 -86.12903724 101.6945259 -88.1875 104.125 C-91.95914088 108.64488576 -95.35569251 113.28300303 -98.58984375 118.19921875 C-99.05519531 118.79347656 -99.52054688 119.38773437 -100 120 C-100.66 120 -101.32 120 -102 120 C-102.27529541 120.58467041 -102.55059082 121.16934082 -102.83422852 121.77172852 C-103.95804957 123.91981539 -105.18419688 125.72751936 -106.65234375 127.65234375 C-107.17602539 128.33981689 -107.69970703 129.02729004 -108.23925781 129.7355957 C-108.79967773 130.46222412 -109.36009766 131.18885254 -109.9375 131.9375 C-110.51725586 132.69313232 -111.09701172 133.44876465 -111.69433594 134.22729492 C-115.69075196 139.39980221 -119.81936859 144.43071676 -124.09960938 149.36987305 C-128.04416411 153.95127876 -131.56086667 158.78411614 -135.02734375 163.734375 C-137.1633933 166.18765963 -137.94253781 166.41611103 -141 167 C-146.01421062 159.56786964 -150.98415799 152.15193141 -155.53125 144.421875 C-157.15381017 141.74637685 -158.87610647 139.15716991 -160.625 136.5625 C-165.8135915 128.85430457 -170.72777477 120.97490702 -175.67236328 113.10888672 C-177.27266879 110.56687881 -178.88427178 108.03222931 -180.5 105.5 C-182.57726179 102.24293419 -184.64441106 98.97974599 -186.703125 95.7109375 C-191.74761333 87.70224699 -196.8068003 79.70382042 -201.9375 71.75 C-202.37352539 71.07179199 -202.80955078 70.39358398 -203.25878906 69.69482422 C-205.32119571 66.50754066 -207.42910418 63.37561823 -209.65625 60.30078125 C-211.4879249 57.76274141 -213.09755044 55.20916414 -214.5625 52.4375 C-216.03261019 49.71128301 -217.54882565 47.10864959 -219.3125 44.5625 C-221 42 -221 42 -221 40 C-221.66 40 -222.32 40 -223 40 C-223.99 37.03 -224.98 34.06 -226 31 C-220.51022019 30.15541849 -218.02942513 32.14151007 -213.78125 35.171875 C-210.52287303 37.31361717 -207.12257645 39.04353151 -203.625 40.75 C-197.52682193 43.73319801 -191.49631052 46.81669849 -185.5 50 C-179.0706474 53.40643345 -172.6136006 56.73779823 -166.08056641 59.94116211 C-162.33173651 61.79114247 -158.64919802 63.72772475 -154.9921875 65.75390625 C-154.14140625 66.21990234 -153.290625 66.68589844 -152.4140625 67.16601562 C-150.75803578 68.07683032 -149.10913452 69.00075906 -147.46875 69.93945312 C-146.71335938 70.35259766 -145.95796875 70.76574219 -145.1796875 71.19140625 C-144.51694824 71.56467041 -143.85420898 71.93793457 -143.17138672 72.32250977 C-138.2067105 73.87152894 -133.77402156 71.63670971 -129.359375 69.41015625 C-127.7662146 68.61170288 -127.7662146 68.61170288 -126.14086914 67.79711914 C-125.02188232 67.22469482 -123.90289551 66.65227051 -122.75 66.0625 C-121.5942749 65.47782959 -120.4385498 64.89315918 -119.24780273 64.29077148 C-110.31285653 59.7417446 -101.51834988 54.97502132 -92.80273438 50.02099609 C-88.56730534 47.62221979 -84.28321916 45.31196489 -80 43 C-78.2984375 42.07960938 -78.2984375 42.07960938 -76.5625 41.140625 C-70.19687492 37.71304543 -63.79812815 34.3823747 -57.3125 31.1875 C-47.70229706 26.44319242 -38.36379238 21.20891315 -29 16 C-5.73663951 3.08531018 -5.73663951 3.08531018 0 2 C0 1.34 0 0.68 0 0 Z M-74 85 C-73 87 -73 87 -73 87 Z M-75 87 C-75.33 87.66 -75.66 88.32 -76 89 C-75.34 89 -74.68 89 -74 89 C-74.33 88.34 -74.66 87.68 -75 87 Z " fill="#083344" transform="translate(297,47)"/>
<path d="M0 0 C5.48977981 -0.84458151 7.97057487 1.14151007 12.21875 4.171875 C15.47711023 6.31360616 18.87739515 8.04360057 22.375 9.75 C28.8076478 12.89560984 35.16939984 16.15333292 41.5 19.5 C42.34353027 19.94569336 43.18706055 20.39138672 44.05615234 20.85058594 C46.03815798 21.89903521 48.0194828 22.94874251 50 24 C46.98968256 24.93423645 46.13349732 25.04449911 43 24 C43 23.34 43 22.68 43 22 C38.545 21.01 38.545 21.01 34 20 C34 19.34 34 18.68 34 18 C33.01 18 32.02 18 31 18 C31 17.34 31 16.68 31 16 C29.700625 16.020625 28.40125 16.04125 27.0625 16.0625 C25.70834367 16.08399454 24.35243917 16.07148199 23 16 C22.67 15.67 22.34 15.34 22 15 C21.34 16.32 20.68 17.64 20 19 C18.35 18.67 16.7 18.34 15 18 C15.30035156 18.77085938 15.60070312 19.54171875 15.91015625 20.3359375 C16.29042969 21.33882812 16.67070313 22.34171875 17.0625 23.375 C17.44535156 24.37273437 17.82820313 25.37046875 18.22265625 26.3984375 C19 29 19 29 18 31 C14.80299391 27.32936337 12.53090622 23.47749607 10.23828125 19.21875 C9.14022389 17.2512529 7.97051071 15.41221156 6.6875 13.5625 C5 11 5 11 5 9 C4.34 9 3.68 9 3 9 C2.01 6.03 1.02 3.06 0 0 Z " fill="#103343" transform="translate(71,78)"/>
<path d="M0 0 C1.32 0.33 2.64 0.66 4 1 C3.49357808 5.35522853 2.61588503 8.44239635 0 12 C-0.66 12 -1.32 12 -2 12 C-2.33 13.32 -2.66 14.64 -3 16 C-3.66 16 -4.32 16 -5 16 C-5.26296875 16.88042969 -5.5259375 17.76085937 -5.796875 18.66796875 C-6.97278262 21.92462199 -8.35312918 24.42874368 -10.25 27.3125 C-11.17232422 28.72402344 -11.17232422 28.72402344 -12.11328125 30.1640625 C-12.73589844 31.09992188 -13.35851562 32.03578125 -14 33 C-14.59167969 33.89460938 -15.18335938 34.78921875 -15.79296875 35.7109375 C-17.18825534 37.81215293 -18.59018482 39.90851594 -20 42 C-21.2077558 38.37673261 -20.54311128 37.35853631 -19 34 C-18.34 34 -17.68 34 -17 34 C-17.33 32.35 -17.66 30.7 -18 29 C-17.01 28.67 -16.02 28.34 -15 28 C-15 27.34 -15 26.68 -15 26 C-14.34 26 -13.68 26 -13 26 C-13.061875 25.2575 -13.12375 24.515 -13.1875 23.75 C-12.96646289 20.50812237 -12.27837542 19.27837542 -10 17 C-9.01 17 -8.02 17 -7 17 C-6.67 14.03 -6.34 11.06 -6 8 C-6.99 8 -7.98 8 -9 8 C-9 8.66 -9 9.32 -9 10 C-10.98 10.33 -12.96 10.66 -15 11 C-15 11.66 -15 12.32 -15 13 C-16.98 13 -18.96 13 -21 13 C-18.29730162 9.77260194 -14.7734486 8.18260345 -11.0625 6.375 C-10.13147461 5.90707031 -10.13147461 5.90707031 -9.18164062 5.4296875 C-6.16986129 3.94143871 -3.31580338 2.61496103 0 2 C0 1.34 0 0.68 0 0 Z " fill="#526671" transform="translate(297,47)"/>
<path d="M0 0 C4.09962517 -0.28704243 6.44956669 0.45871576 10.01953125 2.44921875 C11.43008789 3.22749023 11.43008789 3.22749023 12.86914062 4.02148438 C13.84044922 4.57126953 14.81175781 5.12105469 15.8125 5.6875 C16.77220703 6.21794922 17.73191406 6.74839844 18.72070312 7.29492188 C35.93602246 16.87204492 35.93602246 16.87204492 38 21 C37.505 22.485 37.505 22.485 37 24 C34 20.25 34 20.25 34 18 C31.69 17.67 29.38 17.34 27 17 C27 16.34 27 15.68 27 15 C26.34 15 25.68 15 25 15 C25 14.34 25 13.68 25 13 C22.69 13 20.38 13 18 13 C18 12.34 18 11.68 18 11 C15.69 11.33 13.38 11.66 11 12 C11.66 14.64 12.32 17.28 13 20 C11.02 18.35 9.04 16.7 7 15 C7.33 14.01 7.66 13.02 8 12 C7.34 12 6.68 12 6 12 C6 11.34 6 10.68 6 10 C5.34 10 4.68 10 4 10 C3.32845067 8.71086513 2.66291141 7.41859796 2 6.125 C1.62875 5.40570313 1.2575 4.68640625 0.875 3.9453125 C0 2 0 2 0 0 Z " fill="#435D67" transform="translate(13,48)"/>
<path d="M0 0 C1.32 0.66 2.64 1.32 4 2 C-2.29519209 10.03099873 -8.6097701 18.04423494 -15 26 C-15.67160156 26.91652344 -16.34320313 27.83304688 -17.03515625 28.77734375 C-17.68355469 29.51082031 -18.33195313 30.24429688 -19 31 C-19.99 31 -20.98 31 -22 31 C-24.04296875 28.375 -24.04296875 28.375 -26.1875 25 C-26.55552734 24.42765625 -26.92355469 23.8553125 -27.30273438 23.265625 C-28.21125071 21.84975538 -29.10686477 20.42562203 -30 19 C-29.34 18.67 -28.68 18.34 -28 18 C-25.375 18.9375 -25.375 18.9375 -23 20 C-23 22.31 -23 24.62 -23 27 C-21.35 27 -19.7 27 -18 27 C-17.67 26.01 -17.34 25.02 -17 24 C-16.34 24 -15.68 24 -15 24 C-15.268125 23.278125 -15.53625 22.55625 -15.8125 21.8125 C-16 19 -16 19 -13.75 16.1875 C-11 14 -11 14 -8 14 C-8.33 12.68 -8.66 11.36 -9 10 C-8.01 9.34 -7.02 8.68 -6 8 C-5.67 8.33 -5.34 8.66 -5 9 C-4.67 7.68 -4.34 6.36 -4 5 C-2.68 5 -1.36 5 0 5 C0 3.35 0 1.7 0 0 Z " fill="#576D75" transform="translate(178,183)"/>
<path d="M0 0 C0.33 0.66 0.66 1.32 1 2 C0.328125 3.69921875 0.328125 3.69921875 -0.75 5.6875 C-2.19040593 8.400017 -3.45585063 11.07323105 -4.5625 13.9375 C-5.036875 14.948125 -5.51125 15.95875 -6 17 C-6.99 17.33 -7.98 17.66 -9 18 C-8.34 18.33 -7.68 18.66 -7 19 C-8.35236577 21.93879484 -9.89942659 24.29232911 -12 26.75 C-12.515625 27.36359375 -13.03125 27.9771875 -13.5625 28.609375 C-15 30 -15 30 -17 30 C-17.12375 30.928125 -17.12375 30.928125 -17.25 31.875 C-18 34 -18 34 -19.625 35.25 C-22.8010373 36.25295915 -25.69228878 36.12721966 -29 36 C-29 35.34 -29 34.68 -29 34 C-27.824375 33.87625 -26.64875 33.7525 -25.4375 33.625 C-19.27424455 32.03552886 -17.08462415 27.19515647 -14 22 C-13.24665212 20.7496634 -12.49271601 19.49968109 -11.73828125 18.25 C-10.57588583 16.32016078 -9.41922661 14.38826194 -8.28344727 12.44262695 C-5.74433996 8.11175259 -2.9650741 4.05226794 0 0 Z " fill="#183B49" transform="translate(183,197)"/>
<path d="M0 0 C0.66 0 1.32 0 2 0 C0.31694537 4.98976197 -2.50743837 9.13074162 -5.375 13.5 C-5.85710937 14.24636719 -6.33921875 14.99273437 -6.8359375 15.76171875 C-9.38313461 19.67249692 -11.99882495 23.41565823 -15 27 C-17.96175123 26.38722388 -19.38058783 25.74627478 -22 24 C-23.07136051 21.69855891 -24.07989717 19.3659787 -25 17 C-23.35 17.33 -21.7 17.66 -20 18 C-19.67 19.98 -19.34 21.96 -19 24 C-17.68 24.33 -16.36 24.66 -15 25 C-15 24.01 -15 23.02 -15 22 C-14.34 22 -13.68 22 -13 22 C-13 21.01 -13 20.02 -13 19 C-12.34 19 -11.68 19 -11 19 C-10.34 16.36 -9.68 13.72 -9 11 C-8.34 11 -7.68 11 -7 11 C-7.33 10.01 -7.66 9.02 -8 8 C-7.34 8 -6.68 8 -6 8 C-5.67 7.01 -5.34 6.02 -5 5 C-4.01 5 -3.02 5 -2 5 C-2 4.01 -2 3.02 -2 2 C-1.34 2 -0.68 2 0 2 C0 1.34 0 0.68 0 0 Z " fill="#99A4AA" transform="translate(174,246)"/>
<path d="M0 0 C0.99 0.495 0.99 0.495 2 1 C2.33 1.99 2.66 2.98 3 4 C3.99 4.33 4.98 4.66 6 5 C6 5.66 6 6.32 6 7 C7.32 7.33 8.64 7.66 10 8 C10 10.31 10 12.62 10 15 C10.66 15 11.32 15 12 15 C12.33 15.66 12.66 16.32 13 17 C13.99 17.33 14.98 17.66 16 18 C16.94921875 20.72265625 16.94921875 20.72265625 17.6875 24.0625 C17.93886719 25.16722656 18.19023438 26.27195313 18.44921875 27.41015625 C18.63097656 28.26480469 18.81273438 29.11945313 19 30 C14.86048097 26.34748321 12.30765834 22.40248301 9.55078125 17.63671875 C7.20248653 13.64402622 4.60089054 9.83082975 2 6 C0 3 0 3 0 0 Z " fill="#A0AFB5" transform="translate(57,117)"/>
<path d="M0 0 C0.66 0 1.32 0 2 0 C2 0.66 2 1.32 2 2 C1.01 1.67 0.02 1.34 -1 1 C-0.67 0.67 -0.34 0.34 0 0 Z M-6 2 C-4.35 2 -2.7 2 -1 2 C-0.67 3.98 -0.34 5.96 0 8 C0.66 8 1.32 8 2 8 C2.33 8.99 2.66 9.98 3 11 C3.66 11.33 4.32 11.66 5 12 C5 12.99 5 13.98 5 15 C5.66 15 6.32 15 7 15 C7.33 17.97 7.66 20.94 8 24 C4.90661292 21.1105725 2.66531631 18.15591289 0.4375 14.5625 C-0.14128906 13.63566406 -0.72007813 12.70882812 -1.31640625 11.75390625 C-2.14978516 10.39072266 -2.14978516 10.39072266 -3 9 C-3.84884766 7.65228516 -3.84884766 7.65228516 -4.71484375 6.27734375 C-6 4 -6 4 -6 2 Z " fill="#778C95" transform="translate(82,145)"/>
<path d="M0 0 C0 3.69418201 -1.28179295 5.77836178 -3 9 C-3.66 9 -4.32 9 -5 9 C-5.17015625 9.60328125 -5.3403125 10.2065625 -5.515625 10.828125 C-8.04021655 19.15390565 -8.04021655 19.15390565 -12 22 C-12.99 22 -13.98 22 -15 22 C-17.21168225 24.94236782 -17.21168225 24.94236782 -19 28 C-19.66 27.67 -20.32 27.34 -21 27 C-20.01 25.515 -20.01 25.515 -19 24 C-18.61500109 22.34450469 -18.27206865 20.6777567 -18 19 C-17.01 19 -16.02 19 -15 19 C-15 17.68 -15 16.36 -15 15 C-14.2575 14.79375 -13.515 14.5875 -12.75 14.375 C-9.21709041 12.60854521 -8.07457358 10.29070291 -6 7 C-5.34 7 -4.68 7 -4 7 C-3.71125 6.21625 -3.4225 5.4325 -3.125 4.625 C-2 2 -2 2 0 0 Z M-13 18 C-12 20 -12 20 -12 20 Z " fill="#ABBCC4" transform="translate(236,114)"/>
<path d="M0 0 C1 2 1 2 0.22265625 4.3828125 C-0.35162109 5.74019531 -0.35162109 5.74019531 -0.9375 7.125 C-1.31777344 8.03507813 -1.69804687 8.94515625 -2.08984375 9.8828125 C-2.39019531 10.58148438 -2.69054687 11.28015625 -3 12 C-3.99 12 -4.98 12 -6 12 C-6.1546875 13.6396875 -6.1546875 13.6396875 -6.3125 15.3125 C-7 19 -7 19 -8.375 20.9375 C-10 22 -10 22 -13 22 C-13.2475 22.7425 -13.495 23.485 -13.75 24.25 C-15.09147301 27.20124062 -16.60905526 28.84814974 -19 31 C-17.49826568 26.7714323 -15.32931098 23.16439745 -12.875 19.4375 C-12.28537476 18.53136963 -12.28537476 18.53136963 -11.68383789 17.60693359 C-7.83541888 11.70751459 -3.92930441 5.84577714 0 0 Z " fill="#7C8F97" transform="translate(208,158)"/>
<path d="M0 0 C0 0.66 0 1.32 0 2 C-2.90548882 4.04169485 -4.40142046 5 -8 5 C-8 5.66 -8 6.32 -8 7 C-8.99 7 -9.98 7 -11 7 C-11 7.66 -11 8.32 -11 9 C-16.13292387 11.02615416 -21.46247111 12.27498003 -27 12 C-29.625 10.0625 -29.625 10.0625 -31 8 C-30.67 7.34 -30.34 6.68 -30 6 C-28.700625 6.7734375 -28.700625 6.7734375 -27.375 7.5625 C-23.3798314 9.26414588 -22.15375064 9.06053208 -18 8 C-15.17418327 6.78524557 -12.46649244 5.37783803 -9.75 3.9375 C-2.23846154 0 -2.23846154 0 0 0 Z " fill="#405C65" transform="translate(180,111)"/>
<path d="M0 0 C0.66 0 1.32 0 2 0 C0.76837232 5.20020575 -1.83621503 8.80803719 -4.9140625 13.0546875 C-7.36332345 16.51300727 -9.65752461 20.05374714 -11.9375 23.625 C-12.33912354 24.25341797 -12.74074707 24.88183594 -13.15454102 25.52929688 C-14.10469406 27.01846913 -15.05259751 28.50907635 -16 30 C-16.5625 28.0625 -16.5625 28.0625 -17 26 C-16.67 25.67 -16.34 25.34 -16 25 C-15.63239269 22.67182036 -15.29758419 20.3381615 -15 18 C-12.92446352 17.4465236 -11.15634036 17 -9 17 C-8.67 15.35 -8.34 13.7 -8 12 C-7.34 12 -6.68 12 -6 12 C-5.87625 11.401875 -5.7525 10.80375 -5.625 10.1875 C-5 8 -5 8 -3 5 C-2.34 5 -1.68 5 -1 5 C-0.67 3.35 -0.34 1.7 0 0 Z " fill="#627882" transform="translate(266,101)"/>
<path d="M0 0 C0.66 0.33 1.32 0.66 2 1 C0.0411302 6.1642931 -4.28598872 7.72996874 -9 10 C-10.48760086 10.59451654 -11.98842311 11.1568951 -13.5 11.6875 C-14.2528125 11.95949219 -15.005625 12.23148438 -15.78125 12.51171875 C-18.26071232 13.05737507 -19.59643246 12.68506719 -22 12 C-18.38211799 9.96621887 -14.75463659 7.9502167 -11.125 5.9375 C-10.09246094 5.35677734 -9.05992187 4.77605469 -7.99609375 4.17773438 C-7.00996094 3.63310547 -6.02382813 3.08847656 -5.0078125 2.52734375 C-4.09660645 2.01937256 -3.18540039 1.51140137 -2.24658203 0.98803711 C-1.13452393 0.49895874 -1.13452393 0.49895874 0 0 Z " fill="#344E5A" transform="translate(268,63)"/>
<path d="M0 0 C1.98 0.99 3.96 1.98 6 3 C6 3.99 6 4.98 6 6 C6.66 6 7.32 6 8 6 C8 6.66 8 7.32 8 8 C8.99 8 9.98 8 11 8 C10.67 9.98 10.34 11.96 10 14 C10.66 14 11.32 14 12 14 C12.66 16.64 13.32 19.28 14 22 C10.73430295 18.96756703 8.37969463 15.7614528 6 12 C5.4225 11.113125 4.845 10.22625 4.25 9.3125 C3 7 3 7 3 4 C2.34 4 1.68 4 1 4 C0.67 2.68 0.34 1.36 0 0 Z " fill="#29454F" transform="translate(37,86)"/>
<path d="M0 0 C0.66 0 1.32 0 2 0 C0.50084582 4.1497206 -1.54119477 7.69900823 -3.875 11.4375 C-4.55304688 12.52933594 -5.23109375 13.62117187 -5.9296875 14.74609375 C-7.91196118 17.86162956 -9.93905334 20.93630575 -12 24 C-13.39460991 21.21078018 -12.58060045 19.87922897 -11.6875 16.9375 C-11.42324219 16.03902344 -11.15898437 15.14054688 -10.88671875 14.21484375 C-10 12 -10 12 -8 11 C-7.34786708 8.97536745 -7.34786708 8.97536745 -7 7 C-5.68 7 -4.36 7 -3 7 C-3 6.01 -3 5.02 -3 4 C-2.34 4 -1.68 4 -1 4 C-0.67 2.68 -0.34 1.36 0 0 Z " fill="#6A7A85" transform="translate(203,200)"/>
<path d="M0 0 C1.1875 1.6875 1.1875 1.6875 2 4 C-0.03777037 8.02046587 -2.81593259 11.35829573 -5.6875 14.8125 C-6.49574219 15.78832031 -7.30398437 16.76414063 -8.13671875 17.76953125 C-8.75160156 18.50558594 -9.36648437 19.24164063 -10 20 C-11.04449911 16.86650268 -10.93423645 16.01031744 -10 13 C-9.01 13 -8.02 13 -7 13 C-6.773125 11.96875 -6.54625 10.9375 -6.3125 9.875 C-5.13528144 5.65591742 -2.95161029 3.18463216 0 0 Z " fill="#3F5D69" transform="translate(214,137)"/>
<path d="M0 0 C0.66 0 1.32 0 2 0 C0.67390543 4.08169476 -0.76336579 8.08474041 -2.375 12.0625 C-2.77460938 13.06410156 -3.17421875 14.06570312 -3.5859375 15.09765625 C-5.48312582 18.99160908 -7.95151535 21.95151535 -11 25 C-10.47731534 22.23723823 -9.89130413 19.6739124 -9 17 C-8.34 17 -7.68 17 -7 17 C-7.33 15.35 -7.66 13.7 -8 12 C-7.01 11.67 -6.02 11.34 -5 11 C-5 10.34 -5 9.68 -5 9 C-4.34 9 -3.68 9 -3 9 C-3.061875 8.2575 -3.12375 7.515 -3.1875 6.75 C-2.96760006 3.52480092 -2.21747812 2.30276574 0 0 Z " fill="#16343F" transform="translate(287,64)"/>
<path d="M0 0 C0.66 0.33 1.32 0.66 2 1 C0.73769041 3.29674382 -0.53425733 5.58714709 -1.8125 7.875 C-2.16892578 8.52597656 -2.52535156 9.17695313 -2.89257812 9.84765625 C-4.70081103 13.06597903 -5.87951745 14.9196783 -9 17 C-9.49777341 10.90227577 -8.49152556 7.84934106 -5 3 C-2.8125 2.1875 -2.8125 2.1875 -1 2 C-0.67 1.34 -0.34 0.68 0 0 Z " fill="#2C4A54" transform="translate(236,148)"/>
<path d="M0 0 C3.87922945 3.46616335 6.33340599 7.47107959 9 11.875 C9.85331639 13.2687501 10.70747122 14.66198725 11.5625 16.0546875 C11.96984375 16.71952148 12.3771875 17.38435547 12.796875 18.06933594 C14.47080447 20.7555036 16.22551935 23.37935496 18 26 C17.67 26.66 17.34 27.32 17 28 C14.02296982 25.22828224 12.05776133 22.48924748 10 19 C9.484375 18.525625 8.96875 18.05125 8.4375 17.5625 C7 16 7 16 6.125 13.3125 C4.88910641 9.67347997 3.151165 6.90751774 1.0234375 3.734375 C0 2 0 2 0 0 Z " fill="#99A7AC" transform="translate(90,133)"/>
<path d="M0 0 C0.66 0 1.32 0 2 0 C0.29816715 5.11575056 -2.67753531 9.35015815 -5.625 13.8125 C-6.140625 14.60076172 -6.65625 15.38902344 -7.1875 16.20117188 C-8.45441417 18.1367352 -9.72532964 20.06953942 -11 22 C-11.33 21.34 -11.66 20.68 -12 20 C-11.01 18.515 -11.01 18.515 -10 17 C-9.60612212 14.67612053 -9.26513915 12.34206251 -9 10 C-8.01 10 -7.02 10 -6 10 C-6 8.68 -6 7.36 -6 6 C-5.34 6 -4.68 6 -4 6 C-4 5.01 -4 4.02 -4 3 C-2.68 2.67 -1.36 2.34 0 2 C0 1.34 0 0.68 0 0 Z " fill="#8A9AA2" transform="translate(188,224)"/>
<path d="M0 0 C2.9375 1.1875 2.9375 1.1875 6 3 C6.875 5.6875 6.875 5.6875 7 8 C7.66 8 8.32 8 9 8 C9.64910154 9.58199631 10.29414694 11.16565724 10.9375 12.75 C11.29714844 13.63171875 11.65679687 14.5134375 12.02734375 15.421875 C12.85356576 17.61186104 13.49369943 19.71898271 14 22 C11.20127563 19.47211993 9.54226981 17.79588866 9 14 C8.34 14 7.68 14 7 14 C6.67 12.35 6.34 10.7 6 9 C5.34 9 4.68 9 4 9 C3.67 8.01 3.34 7.02 3 6 C2.34 5.67 1.68 5.34 1 5 C0.375 2.4375 0.375 2.4375 0 0 Z " fill="#ACB9BF" transform="translate(112,204)"/>
<path d="M0 0 C5.97897503 -0.74737188 9.32379721 1.6768102 14 5 C10.06204091 6.22419163 7.83887763 5.48320272 4 4 C4 4.99 4 5.98 4 7 C4.66 7 5.32 7 6 7 C6.12375 7.804375 6.2475 8.60875 6.375 9.4375 C6.684375 10.7059375 6.684375 10.7059375 7 12 C7.66 12.33 8.32 12.66 9 13 C8.01 13 7.02 13 6 13 C5.67 11.68 5.34 10.36 5 9 C4.34 9 3.68 9 3 9 C2.01 6.03 1.02 3.06 0 0 Z " fill="#97A1A7" transform="translate(71,78)"/>
<path d="M0 0 C0.99 0 1.98 0 3 0 C3 0.66 3 1.32 3 2 C3.66 2 4.32 2 5 2 C5 2.66 5 3.32 5 4 C5.66 4 6.32 4 7 4 C7 4.66 7 5.32 7 6 C7.66 6.33 8.32 6.66 9 7 C9.59355614 9.64860427 9.74209269 12.29197322 10 15 C10.66 15 11.32 15 12 15 C12.33 16.65 12.66 18.3 13 20 C9.36428659 16.6811607 6.86067641 12.99935849 4.25 8.875 C3.83878906 8.24207031 3.42757812 7.60914062 3.00390625 6.95703125 C0 2.25656665 0 2.25656665 0 0 Z " fill="#28444E" transform="translate(93,114)"/>
<path d="M0 0 C4.06534057 -0.28883414 6.33058355 0.42124391 9.8125 2.5 C10.60269531 2.9640625 11.39289062 3.428125 12.20703125 3.90625 C12.79871094 4.2671875 13.39039063 4.628125 14 5 C10.71023192 6.09658936 9.28696233 5.79953138 6 5 C6.33 7.31 6.66 9.62 7 12 C6.67 11.34 6.34 10.68 6 10 C5.34 10 4.68 10 4 10 C3.32845067 8.71086513 2.66291141 7.41859796 2 6.125 C1.62875 5.40570313 1.2575 4.68640625 0.875 3.9453125 C0 2 0 2 0 0 Z " fill="#92999E" transform="translate(13,48)"/>
<path d="M0 0 C4.875 4.625 4.875 4.625 6 8 C6.99 8.33 7.98 8.66 9 9 C9.6875 11.0625 9.6875 11.0625 10 13 C10.66 13 11.32 13 12 13 C12.66 15.97 13.32 18.94 14 22 C13.34 21.67 12.68 21.34 12 21 C12 20.34 12 19.68 12 19 C11.34 19 10.68 19 10 19 C9.67 17.35 9.34 15.7 9 14 C8.34 14 7.68 14 7 14 C6.401875 12.948125 5.80375 11.89625 5.1875 10.8125 C3.91366341 8.57308622 2.61179435 6.37609806 1.25 4.1875 C0 2 0 2 0 0 Z " fill="#8E9DA4" transform="translate(98,182)"/>
<path d="M0 0 C1.98 0.99 1.98 0.99 4 2 C4 2.66 4 3.32 4 4 C4.66 4 5.32 4 6 4 C7.25664978 6.90600261 8 8.79604584 8 12 C8.66 12 9.32 12 10 12 C10.86375896 13.61992165 11.71575854 15.24611861 12.5625 16.875 C13.03816406 17.77992188 13.51382813 18.68484375 14.00390625 19.6171875 C14.33261719 20.40351563 14.66132813 21.18984375 15 22 C14.67 22.66 14.34 23.32 14 24 C8.53847908 16.46089763 3.1373916 8.84173996 0 0 Z " fill="#8FA0AA" transform="translate(134,238)"/>
<path d="M0 0 C2.31 0.66 4.62 1.32 7 2 C7 4.31 7 6.62 7 9 C8.65 9 10.3 9 12 9 C12.33 8.01 12.66 7.02 13 6 C13.99 5.67 14.98 5.34 16 5 C14.83242263 8.32310483 13.85051143 10.83361132 11 13 C10.01 13 9.02 13 8 13 C5.95703125 10.41015625 5.95703125 10.41015625 3.8125 7.0625 C3.09707031 5.96035156 2.38164062 4.85820312 1.64453125 3.72265625 C0 1 0 1 0 0 Z " fill="#859297" transform="translate(148,201)"/>
<path d="M0 0 C0.33 0.66 0.66 1.32 1 2 C0.328125 3.69921875 0.328125 3.69921875 -0.75 5.6875 C-2.18824721 8.38237275 -3.3967263 11.00535228 -4.4375 13.875 C-6 17 -6 17 -8.6875 18.4375 C-9.450625 18.623125 -10.21375 18.80875 -11 19 C-9.60318936 13.9499923 -7.40056078 10.30405582 -4.375 6.125 C-3.95476562 5.53203125 -3.53453125 4.9390625 -3.1015625 4.328125 C-2.07434578 2.88068326 -1.0380937 1.43966081 0 0 Z " fill="#6F868F" transform="translate(183,197)"/>
<path d="M0 0 C5.00113594 1.48008696 9.32915597 3.6318336 13.875 6.125 C14.56335938 6.49753906 15.25171875 6.87007813 15.9609375 7.25390625 C17.64294798 8.16499526 19.32180436 9.08190315 21 10 C17.98968256 10.93423645 17.13349732 11.04449911 14 10 C14 9.34 14 8.68 14 8 C9.545 7.01 9.545 7.01 5 6 C5 5.34 5 4.68 5 4 C4.01 4 3.02 4 2 4 C1.34 2.68 0.68 1.36 0 0 Z " fill="#7D9097" transform="translate(100,92)"/>
<path d="M0 0 C3.80427705 3.41073115 6.22774561 7.27961581 8.8125 11.625 C9.23208984 12.305625 9.65167969 12.98625 10.08398438 13.6875 C11.12304523 15.41983869 12.069825 17.20684097 13 19 C12.67 19.66 12.34 20.32 12 21 C7.9957657 17.50912907 6.37328935 15.35048061 6 10 C5.34 10 4.68 10 4 10 C1.04696841 6.92884715 0.47348414 4.1666604 0 0 Z " fill="#9BA9B0" transform="translate(54,76)"/>
<path d="M0 0 C0 0.99 0 1.98 0 3 C-2.64738916 4.4606285 -3.89448334 5 -7 5 C-7 5.66 -7 6.32 -7 7 C-7.66 7 -8.32 7 -9 7 C-9 7.66 -9 8.32 -9 9 C-13.455 9.495 -13.455 9.495 -18 10 C-14.5494537 7.16811225 -10.74037641 5.25496982 -6.75 3.3125 C-6.1003125 2.99216797 -5.450625 2.67183594 -4.78125 2.34179688 C-3.18930243 1.55752859 -1.59489471 0.77825745 0 0 Z " fill="#6E8388" transform="translate(235,81)"/>
<path d="M0 0 C1.32 0.33 2.64 0.66 4 1 C4.33 2.65 4.66 4.3 5 6 C5.66 6 6.32 6 7 6 C7 6.66 7 7.32 7 8 C7.66 8 8.32 8 9 8 C9.66 10.97 10.32 13.94 11 17 C7.6488721 13.93801809 5.49333007 10.7479145 3.25 6.8125 C2.63640625 5.74644531 2.0228125 4.68039063 1.390625 3.58203125 C0 1 0 1 0 0 Z " fill="#9AA8AC" transform="translate(26,69)"/>
<path d="M0 0 C0.66 0.33 1.32 0.66 2 1 C1.01 3.97 0.02 6.94 -1 10 C-1.66 10 -2.32 10 -3 10 C-3 10.99 -3 11.98 -3 13 C-3.66 13 -4.32 13 -5 13 C-5 13.66 -5 14.32 -5 15 C-6.98 15.99 -6.98 15.99 -9 17 C-7.69289187 13.42597488 -6.11587706 10.49002567 -3.9375 7.375 C-2.16012171 4.82843844 -0.98934061 2.96802184 0 0 Z " fill="#818D96" transform="translate(221,136)"/>
<path d="M0 0 C5.54746008 1.5849886 9.9538879 3.82188067 13.9375 8.0625 C14.288125 8.701875 14.63875 9.34125 15 10 C14.67 10.99 14.34 11.98 14 13 C11 9.25 11 9.25 11 7 C8.69 6.67 6.38 6.34 4 6 C4 5.34 4 4.68 4 4 C3.34 4 2.68 4 2 4 C1.34 2.68 0.68 1.36 0 0 Z " fill="#85959D" transform="translate(36,59)"/>
<path d="M0 0 C0 3.61137513 -0.92530082 4.74732191 -2.9375 7.6875 C-3.48277344 8.49574219 -4.02804687 9.30398437 -4.58984375 10.13671875 C-5.05519531 10.75160156 -5.52054687 11.36648437 -6 12 C-6.33 12 -6.66 12 -7 12 C-6.85892253 10.54119891 -6.71197585 9.08296449 -6.5625 7.625 C-6.48128906 6.81289062 -6.40007812 6.00078125 -6.31640625 5.1640625 C-6 3 -6 3 -5 1 C-2.4375 0.375 -2.4375 0.375 0 0 Z " fill="#74878F" transform="translate(275,89)"/>
<path d="M0 0 C2.44375992 2.28964893 4.31540229 4.72652191 6.1875 7.5 C6.71730469 8.2734375 7.24710938 9.046875 7.79296875 9.84375 C9 12 9 12 9 15 C7.1875 14.9375 7.1875 14.9375 5 14 C3.93097061 11.69747517 2.92824183 9.3627974 2 7 C1.34 6.67 0.68 6.34 0 6 C0 4.02 0 2.04 0 0 Z " fill="#889A9F" transform="translate(126,189)"/>
<path d="M0 0 C1.32 0.99 2.64 1.98 4 3 C3.04956626 4.33897583 2.08940853 5.67105427 1.125 7 C0.59132812 7.7425 0.05765625 8.485 -0.4921875 9.25 C-0.98976562 9.8275 -1.48734375 10.405 -2 11 C-2.66 11 -3.32 11 -4 11 C-4.33 11.99 -4.66 12.98 -5 14 C-5.33 14 -5.66 14 -6 14 C-6 12.35 -6 10.7 -6 9 C-5.01 8.67 -4.02 8.34 -3 8 C-2.87625 6.865625 -2.7525 5.73125 -2.625 4.5625 C-2.41875 3.386875 -2.2125 2.21125 -2 1 C-1.34 0.67 -0.68 0.34 0 0 Z " fill="#697F87" transform="translate(199,156)"/>
<path d="M0 0 C1.32 0.33 2.64 0.66 4 1 C4.33 2.65 4.66 4.3 5 6 C5.66 6 6.32 6 7 6 C7.33 7.65 7.66 9.3 8 11 C8.66 11 9.32 11 10 11 C10.33 12.98 10.66 14.96 11 17 C7.89440343 14.27647998 5.92453881 10.87342234 3.8125 7.375 C3.44447266 6.776875 3.07644531 6.17875 2.69726562 5.5625 C0 1.13878421 0 1.13878421 0 0 Z " fill="#889CA2" transform="translate(117,152)"/>
<path d="M0 0 C0.66 0 1.32 0 2 0 C0.2645544 6.17047326 -4.57877075 10.57877075 -9 15 C-9 13.68 -9 12.36 -9 11 C-8.34 11 -7.68 11 -7 11 C-7.33 10.01 -7.66 9.02 -8 8 C-7.34 8 -6.68 8 -6 8 C-5.67 7.01 -5.34 6.02 -5 5 C-4.01 5 -3.02 5 -2 5 C-2 4.01 -2 3.02 -2 2 C-1.34 2 -0.68 2 0 2 C0 1.34 0 0.68 0 0 Z " fill="#687E86" transform="translate(174,246)"/>
<path d="M0 0 C0.66 0 1.32 0 2 0 C2 0.66 2 1.32 2 2 C2.66 2 3.32 2 4 2 C4 2.99 4 3.98 4 5 C4.66 5 5.32 5 6 5 C6.33 6.65 6.66 8.3 7 10 C7.66 10 8.32 10 9 10 C9.66 12.31 10.32 14.62 11 17 C5.7202575 12.32365664 2.23370364 6.70111093 0 0 Z " fill="#9EABB2" transform="translate(79,92)"/>
<path d="M0 0 C2.78576391 2.53642084 4.71423062 5.40369256 6.75 8.5625 C7.38421875 9.53316406 8.0184375 10.50382813 8.671875 11.50390625 C9.11015625 12.32761719 9.5484375 13.15132812 10 14 C9.67 14.66 9.34 15.32 9 16 C7.0625 15.375 7.0625 15.375 5 14 C4.65259077 12.00239695 4.32033957 10.00212229 4 8 C2.68671343 6.64691687 1.35500919 5.31129922 0 4 C0 2.68 0 1.36 0 0 Z " fill="#92A2AC" transform="translate(108,161)"/>
<path d="M0 0 C1.32 0.33 2.64 0.66 4 1 C4.33 2.65 4.66 4.3 5 6 C5.66 6 6.32 6 7 6 C7.33 7.65 7.66 9.3 8 11 C8.66 11 9.32 11 10 11 C10.33 12.98 10.66 14.96 11 17 C8.15604453 13.55201858 5.63857848 10.02681212 3.25 6.25 C2.63640625 5.28578125 2.0228125 4.3215625 1.390625 3.328125 C0 1 0 1 0 0 Z " fill="#8EA0A7" transform="translate(106,135)"/>
<path d="M0 0 C3.71080883 4.42442592 6.84577733 9.17403931 10 14 C9.67 14.66 9.34 15.32 9 16 C7.824375 14.7934375 7.824375 14.7934375 6.625 13.5625 C4.28017144 11.01309583 4.28017144 11.01309583 2 10 C2 8.02 2 6.04 2 4 C1.34 4 0.68 4 0 4 C0 2.68 0 1.36 0 0 Z " fill="#8D9DA4" transform="translate(75,109)"/>
<path d="M0 0 C1.32 0.33 2.64 0.66 4 1 C3.49357808 5.35522853 2.61588503 8.44239635 0 12 C-0.66 12 -1.32 12 -2 12 C-0.94124926 8.59687262 0.00902154 5.98646769 2 3 C0.02 3.33 -1.96 3.66 -4 4 C-3.67 3.34 -3.34 2.68 -3 2 C-2.01 2 -1.02 2 0 2 C0 1.34 0 0.68 0 0 Z " fill="#B3B9BD" transform="translate(297,47)"/>
<path d="M0 0 C1 2 1 2 0.3125 4.5 C-1 7 -1 7 -2.6875 8.3125 C-5.83356663 9.2478171 -8.73924509 9.12541365 -12 9 C-12 8.34 -12 7.68 -12 7 C-10.7625 6.773125 -9.525 6.54625 -8.25 6.3125 C-4.07965475 5.2994906 -2.32446864 3.68040867 0 0 Z " fill="#8EA1A9" transform="translate(166,224)"/>
<path d="M0 0 C0.99 0.495 0.99 0.495 2 1 C2.33 1.99 2.66 2.98 3 4 C3.99 4.33 4.98 4.66 6 5 C6 5.66 6 6.32 6 7 C7.32 7.33 8.64 7.66 10 8 C10 9.98 10 11.96 10 14 C8.5 12.625 8.5 12.625 7 11 C7 10.34 7 9.68 7 9 C6.401875 8.7525 5.80375 8.505 5.1875 8.25 C2.66413131 6.80807503 1.49969924 5.47450374 0 3 C0 2.01 0 1.02 0 0 Z " fill="#788C93" transform="translate(57,117)"/>
<path d="M0 0 C0.66 0 1.32 0 2 0 C0.2778458 7.27131774 -4.59198611 13.92275149 -10 19 C-9.01 15.535 -9.01 15.535 -8 12 C-7.34 12 -6.68 12 -6 12 C-5.814375 11.1028125 -5.814375 11.1028125 -5.625 10.1875 C-5 8 -5 8 -3 5 C-2.34 5 -1.68 5 -1 5 C-0.67 3.35 -0.34 1.7 0 0 Z " fill="#ABB8BC" transform="translate(266,101)"/>
<path d="M0 0 C5.68502535 1.64566523 10.76681636 4.29032784 16 7 C12.90279155 7.87840996 11.09354597 7.99435406 8 7 C8 6.34 8 5.68 8 5 C5.36 4.34 2.72 3.68 0 3 C0 2.01 0 1.02 0 0 Z " fill="#697882" transform="translate(127,106)"/>
<path d="M0 0 C0.66 0.33 1.32 0.66 2 1 C1 2 0 3 -1 4 C-1.45375 4.515625 -1.9075 5.03125 -2.375 5.5625 C-5.8725278 8.6564669 -9.44249032 9.26042912 -14 9 C-9.80022081 5.3421278 -5.12798061 2.20634136 0 0 Z " fill="#516A73" transform="translate(215,91)"/>
<path d="M0 0 C0.66 0.33 1.32 0.66 2 1 C-1.75 4 -1.75 4 -4 4 C-4 4.66 -4 5.32 -4 6 C-4.99 6 -5.98 6 -7 6 C-7 6.66 -7 7.32 -7 8 C-9.97 8.66 -12.94 9.32 -16 10 C-12.93965821 6.93965821 -10.22642494 5.29898287 -6.4375 3.25 C-4.70306641 2.29867187 -4.70306641 2.29867187 -2.93359375 1.328125 C-1.96550781 0.88984375 -0.99742187 0.4515625 0 0 Z " fill="#899BA1" transform="translate(268,63)"/>
<path d="M0 0 C0.99 0 1.98 0 3 0 C2.65986985 5.44208234 -0.70296528 8.93668198 -4 13 C-4.66 12.67 -5.32 12.34 -6 12 C-5.34 11.01 -4.68 10.02 -4 9 C-3.61500109 7.34450469 -3.27206865 5.6777567 -3 4 C-2.01 4 -1.02 4 0 4 C0 2.68 0 1.36 0 0 Z " fill="#869A9F" transform="translate(221,129)"/>
<path d="M0 0 C1.32 0.66 2.64 1.32 4 2 C1.36 5.3 -1.28 8.6 -4 12 C-5.04449911 8.86650268 -4.93423645 8.01031744 -4 5 C-2.68 5 -1.36 5 0 5 C0 3.35 0 1.7 0 0 Z " fill="#6F838C" transform="translate(178,183)"/>
<path d="M0 0 C5.60120371 2.04471126 10.56677932 3.86232737 15 8 C12.69 7.67 10.38 7.34 8 7 C8 6.34 8 5.68 8 5 C5.03 4.505 5.03 4.505 2 4 C2 3.34 2 2.68 2 2 C1.34 2 0.68 2 0 2 C0 1.34 0 0.68 0 0 Z " fill="#8A9CA4" transform="translate(85,84)"/>
<path d="M0 0 C-0.67097672 4.19360449 -2.8558394 7.40334352 -5 11 C-5.66 11 -6.32 11 -7 11 C-7.33 11.66 -7.66 12.32 -8 13 C-8 11.68 -8 10.36 -8 9 C-7.34 9 -6.68 9 -6 9 C-5.81824219 8.15115234 -5.81824219 8.15115234 -5.6328125 7.28515625 C-5.46523437 6.55167969 -5.29765625 5.81820312 -5.125 5.0625 C-4.96257812 4.33160156 -4.80015625 3.60070312 -4.6328125 2.84765625 C-3.73508672 0.22651863 -2.68779246 0 0 0 Z " fill="#8C9AA3" transform="translate(227,165)"/>
<path d="M0 0 C1.03125 0.495 2.0625 0.99 3.125 1.5 C6.52451578 2.97473902 9.27021549 3.27291106 13 3 C12.67 3.66 12.34 4.32 12 5 C9.08954787 5.66797262 6.92361206 6.15327675 4 6 C1.5 4.1875 1.5 4.1875 0 2 C0 1.34 0 0.68 0 0 Z " fill="#5D727B" transform="translate(149,117)"/>
<path d="M0 0 C0 3.63195496 -0.95453155 4.74713911 -3 7.6875 C-3.556875 8.49574219 -4.11375 9.30398437 -4.6875 10.13671875 C-5.120625 10.75160156 -5.55375 11.36648437 -6 12 C-6.33 10.68 -6.66 9.36 -7 8 C-6.01 7.67 -5.02 7.34 -4 7 C-4.33 5.35 -4.66 3.7 -5 2 C-3.35 1.34 -1.7 0.68 0 0 Z " fill="#93A0A8" transform="translate(212,188)"/>
<path d="M0 0 C0.66 0 1.32 0 2 0 C0.6744419 3.62276315 -0.94346955 6.63505348 -3.125 9.8125 C-3.66382813 10.60269531 -4.20265625 11.39289063 -4.7578125 12.20703125 C-5.37269531 13.09455078 -5.37269531 13.09455078 -6 14 C-6.33 13.34 -6.66 12.68 -7 12 C-6.67 11.01 -6.34 10.02 -6 9 C-5.34 9 -4.68 9 -4 9 C-3.67 7.35 -3.34 5.7 -3 4 C-2.34 4 -1.68 4 -1 4 C-0.67 2.68 -0.34 1.36 0 0 Z " fill="#A6B1B7" transform="translate(203,200)"/>
<path d="M0 0 C1.9375 0.6875 1.9375 0.6875 4 2 C4.75 4.625 4.75 4.625 5 7 C5.66 7 6.32 7 7 7 C7.33 8.98 7.66 10.96 8 13 C5.9754262 11.06745228 4.57894208 9.36841312 3 7 C3 6.01 3 5.02 3 4 C2.34 4 1.68 4 1 4 C0.67 2.68 0.34 1.36 0 0 Z " fill="#B4C0C3" transform="translate(37,86)"/>
<path d="M0 0 C-0.66 1.65 -1.32 3.3 -2 5 C-4.64 5 -7.28 5 -10 5 C-3.63636364 0 -3.63636364 0 0 0 Z " fill="#54686C" transform="translate(201,100)"/>
<path d="M0 0 C0.33 0.99 0.66 1.98 1 3 C0.34 3 -0.32 3 -1 3 C-1 3.99 -1 4.98 -1 6 C-2.65 6.33 -4.3 6.66 -6 7 C-6.33 6.34 -6.66 5.68 -7 5 C-6.67 4.34 -6.34 3.68 -6 3 C-5.01 3 -4.02 3 -3 3 C-3 2.34 -3 1.68 -3 1 C-2.01 0.67 -1.02 0.34 0 0 Z " fill="#0B2B3C" transform="translate(285,57)"/>
<path d="M0 0 C4.06534057 -0.28883414 6.33058355 0.42124391 9.8125 2.5 C10.60269531 2.9640625 11.39289062 3.428125 12.20703125 3.90625 C12.79871094 4.2671875 13.39039063 4.628125 14 5 C10.35839192 6.21386936 9.66834531 5.6674695 6.3125 4.0625 C5.50425781 3.68222656 4.69601563 3.30195312 3.86328125 2.91015625 C3.24839844 2.60980469 2.63351563 2.30945312 2 2 C1.67 2.66 1.34 3.32 1 4 C0.67 2.68 0.34 1.36 0 0 Z " fill="#DEE2E4" transform="translate(13,48)"/>
<path d="M0 0 C0.66 0.66 1.32 1.32 2 2 C1.1875 4.4375 1.1875 4.4375 0 7 C-0.99 7.33 -1.98 7.66 -3 8 C-3.75 6.25 -3.75 6.25 -4 4 C-2.0625 1.75 -2.0625 1.75 0 0 Z " fill="#32515D" transform="translate(166,198)"/>
<path d="M0 0 C4.0081803 3.67416528 6.52591615 7.14346504 9 12 C9 12.66 9 13.32 9 14 C8.34 14 7.68 14 7 14 C6.401875 12.948125 5.80375 11.89625 5.1875 10.8125 C3.91366341 8.57308622 2.61179435 6.37609806 1.25 4.1875 C0 2 0 2 0 0 Z " fill="#DCE7E7" transform="translate(98,182)"/>
<path d="M0 0 C0.66 0 1.32 0 2 0 C0.44298069 4.67105792 -2.08447373 8.08705685 -5 12 C-6 9 -6 9 -4.6875 6.3125 C-4.130625 5.549375 -3.57375 4.78625 -3 4 C-2.34 4 -1.68 4 -1 4 C-0.67 2.68 -0.34 1.36 0 0 Z " fill="#A5B4B7" transform="translate(233,153)"/>
<path d="M0 0 C0.66 0 1.32 0 2 0 C2 0.99 2 1.98 2 3 C2.66 3 3.32 3 4 3 C4.33 5.97 4.66 8.94 5 12 C3 10.1875 3 10.1875 1 8 C1 7.01 1 6.02 1 5 C0.68911632 3.32900023 0.35919668 1.66128463 0 0 Z " fill="#62777F" transform="translate(85,157)"/>
<path d="M0 0 C0.66 0.33 1.32 0.66 2 1 C-0.49872182 4.8373228 -3.0843836 8.45960866 -6 12 C-5.47731534 9.23723823 -4.89130413 6.6739124 -4 4 C-3.34 4 -2.68 4 -2 4 C-2 3.34 -2 2.68 -2 2 C-1.34 2 -0.68 2 0 2 C0 1.34 0 0.68 0 0 Z " fill="#ADB8BF" transform="translate(282,77)"/>
<path d="M0 0 C0 0.66 0 1.32 0 2 C-0.639375 2.28875 -1.27875 2.5775 -1.9375 2.875 C-4.15206079 3.82823451 -4.15206079 3.82823451 -5 6 C-6.98 6 -8.96 6 -11 6 C-8.24029211 2.78034079 -4.3526723 0 0 0 Z " fill="#A8B4B9" transform="translate(287,54)"/>
<path d="M0 0 C2.64752004 2.57784846 4.94432065 4.91648098 7 8 C7 8.99 7 9.98 7 11 C6.01 10.67 5.02 10.34 4 10 C2.41927041 6.71694623 1.15154357 3.45463072 0 0 Z " fill="#A9B6BA" transform="translate(135,204)"/>
<path d="M0 0 C3.25914951 3.08297927 6.06553673 5.9161331 8 10 C7.67 10.99 7.34 11.98 7 13 C5.82786955 11.21190303 4.66244474 9.41940875 3.5 7.625 C2.8503125 6.62726563 2.200625 5.62953125 1.53125 4.6015625 C0 2 0 2 0 0 Z " fill="#D1D9DC" transform="translate(90,169)"/>
<path d="M0 0 C1.9375 0.6875 1.9375 0.6875 4 2 C4.75 4.625 4.75 4.625 5 7 C5.66 7 6.32 7 7 7 C7.33 8.65 7.66 10.3 8 12 C4.74451247 8.97704729 2.31022942 5.79537691 0 2 C0 1.34 0 0.68 0 0 Z " fill="#96A5AB" transform="translate(98,122)"/>
<path d="M0 0 C0.66 0 1.32 0 2 0 C2.33 0.99 2.66 1.98 3 3 C1.625 4.5 1.625 4.5 0 6 C-0.66 6 -1.32 6 -2 6 C-2.33 6.99 -2.66 7.98 -3 9 C-2.5020163 5.26512223 -2.12508244 3.18762365 0 0 Z M3 1 C5 2 5 2 5 2 Z " fill="#254655" transform="translate(231,123)"/>
<path d="M0 0 C0.99 0 1.98 0 3 0 C3.86375896 1.61992165 4.71575854 3.24611861 5.5625 4.875 C6.03816406 5.77992188 6.51382813 6.68484375 7.00390625 7.6171875 C7.33261719 8.40351563 7.66132813 9.18984375 8 10 C7.67 10.66 7.34 11.32 7 12 C5.82767315 10.3790787 4.6622923 8.75313167 3.5 7.125 C2.8503125 6.22007812 2.200625 5.31515625 1.53125 4.3828125 C0 2 0 2 0 0 Z " fill="#C2CDD1" transform="translate(141,250)"/>
<path d="M0 0 C0.66 0 1.32 0 2 0 C0.54955729 4.10958767 -1.51110752 7.43258745 -4 11 C-5 8 -5 8 -4.0625 5.8125 C-3.711875 5.214375 -3.36125 4.61625 -3 4 C-2.34 4 -1.68 4 -1 4 C-0.67 2.68 -0.34 1.36 0 0 Z " fill="#9DABB3" transform="translate(247,131)"/>
<path d="M0 0 C0 0.66 0 1.32 0 2 C-3.82942948 4.90108294 -7.27536912 5.53680089 -12 6 C-8.59780735 3.25207517 -4.51535412 0 0 0 Z " fill="#65767D" transform="translate(180,111)"/>
<path d="M0 0 C0.33 0.66 0.66 1.32 1 2 C0.319375 2.804375 0.319375 2.804375 -0.375 3.625 C-2.21688312 6.31698302 -3.07971933 8.88520388 -4 12 C-4.66 12 -5.32 12 -6 12 C-5.57405412 10.55903414 -5.13373367 9.12231288 -4.6875 7.6875 C-4.44386719 6.88699219 -4.20023438 6.08648437 -3.94921875 5.26171875 C-2.95817977 2.90035427 -1.91925057 1.66120007 0 0 Z " fill="#486A79" transform="translate(241,107)"/>
<path d="M0 0 C0.33 0.66 0.66 1.32 1 2 C-0.98 4.97 -2.96 7.94 -5 11 C-5.33 10.34 -5.66 9.68 -6 9 C-5.29296875 7.08984375 -5.29296875 7.08984375 -4.1875 4.9375 C-3.83042969 4.22464844 -3.47335937 3.51179688 -3.10546875 2.77734375 C-2 1 -2 1 0 0 Z " fill="#B4C1C5" transform="translate(290,65)"/>
<path d="M0 0 C0.33 1.32 0.66 2.64 1 4 C0.01 4.33 -0.98 4.66 -2 5 C-2 6.32 -2 7.64 -2 9 C-2.99 9.33 -3.98 9.66 -5 10 C-3.84414715 6.08788267 -2.64465038 3.1254959 0 0 Z " fill="#B4BCC4" transform="translate(177,206)"/>
<path d="M0 0 C2.61527381 2.36620011 4.26440562 4.942048 6 8 C4.35 7.67 2.7 7.34 1 7 C0.67 4.69 0.34 2.38 0 0 Z " fill="#23414B" transform="translate(91,137)"/>
<path d="M0 0 C0.66 0 1.32 0 2 0 C1.50168276 3.68754757 0.89932357 5.60490662 -2 8 C-2.6875 6.25 -2.6875 6.25 -3 4 C-1.6875 1.75 -1.6875 1.75 0 0 Z " fill="#193E47" transform="translate(227,120)"/>
<path d="M0 0 C1.32 0.33 2.64 0.66 4 1 C4.66 3.64 5.32 6.28 6 9 C2.91910327 6.22719294 1.31224548 3.93673644 0 0 Z " fill="#ADB9BA" transform="translate(45,99)"/>
<path d="M0 0 C0 0.99 0 1.98 0 3 C-4.455 3.495 -4.455 3.495 -9 4 C-3.7826087 0 -3.7826087 0 0 0 Z " fill="#667982" transform="translate(226,87)"/>
<path d="M0 0 C0.66 0.33 1.32 0.66 2 1 C1.01 2.485 1.01 2.485 0 4 C-0.99 4 -1.98 4 -3 4 C-3 4.66 -3 5.32 -3 6 C-4.65 6.33 -6.3 6.66 -8 7 C-7.67 6.34 -7.34 5.68 -7 5 C-6.01 5 -5.02 5 -4 5 C-3.566875 4.0409375 -3.566875 4.0409375 -3.125 3.0625 C-2 1 -2 1 0 0 Z " fill="#61767E" transform="translate(291,51)"/>
<path d="M0 0 C2.9375 1.25 2.9375 1.25 6 3 C6.875 5.1875 6.875 5.1875 7 7 C6.34 7 5.68 7 5 7 C5 6.34 5 5.68 5 5 C3.68 5 2.36 5 1 5 C0.67 3.35 0.34 1.7 0 0 Z " fill="#8C9CA4" transform="translate(112,204)"/>
<path d="M0 0 C1.65 0 3.3 0 5 0 C2.25 4.875 2.25 4.875 0 6 C0 4.02 0 2.04 0 0 Z " fill="#6A7D83" transform="translate(188,170)"/>
<path d="M0 0 C1 2 1 2 0.3125 5 C-1 8 -1 8 -3.125 9.375 C-3.74375 9.58125 -4.3625 9.7875 -5 10 C-3.66511872 6.40608886 -2.03977277 3.24509304 0 0 Z " fill="#BAC3CA" transform="translate(217,143)"/>
<path d="M0 0 C1.65 0 3.3 0 5 0 C2.525 3.465 2.525 3.465 0 7 C-1.04449911 3.86650268 -0.93423645 3.01031744 0 0 Z " fill="#6D8183" transform="translate(204,150)"/>
<path d="M0 0 C-1.20381448 2.49361571 -2.45428722 4.68143083 -4 7 C-4 5.68 -4 4.36 -4 3 C-4.99 2.67 -5.98 2.34 -7 2 C-2.25 0 -2.25 0 0 0 Z " fill="#344951" transform="translate(299,50)"/>
<path d="M0 0 C1.125 3.75 1.125 3.75 0 6 C-0.66 6 -1.32 6 -2 6 C-2 6.66 -2 7.32 -2 8 C-2.66 8 -3.32 8 -4 8 C-2.87548273 5.0280615 -1.77706209 2.66559313 0 0 Z " fill="#8D9FA4" transform="translate(171,216)"/>
<path d="M0 0 C0.75 1.75 0.75 1.75 1 4 C-0.9375 6.25 -0.9375 6.25 -3 8 C-3.33 7.34 -3.66 6.68 -4 6 C-2.68 4.02 -1.36 2.04 0 0 Z " fill="#9BAEB2" transform="translate(188,189)"/>
<path d="M0 0 C0.66 0 1.32 0 2 0 C0.6302836 3.99500618 -1.25722422 6.80009492 -4 10 C-3.67 8.02 -3.34 6.04 -3 4 C-2.34 4 -1.68 4 -1 4 C-0.67 2.68 -0.34 1.36 0 0 Z " fill="#9BA8B0" transform="translate(217,178)"/>
<path d="M0 0 C1.32 0.33 2.64 0.66 4 1 C3.34 1 2.68 1 2 1 C1.71125 1.598125 1.4225 2.19625 1.125 2.8125 C0 5 0 5 -2 8 C-2 6.02 -2 4.04 -2 2 C-1.34 2 -0.68 2 0 2 C0 1.34 0 0.68 0 0 Z " fill="#1E3C47" transform="translate(261,105)"/>
<path d="M0 0 C0.99 0.33 1.98 0.66 3 1 C2.67 1.99 2.34 2.98 2 4 C1.34 4 0.68 4 0 4 C0 4.66 0 5.32 0 6 C-0.66 6 -1.32 6 -2 6 C-2.33 5.01 -2.66 4.02 -3 3 C-2.01 2.67 -1.02 2.34 0 2 C0 1.34 0 0.68 0 0 Z " fill="#2B4853" transform="translate(282,73)"/>
<path d="M0 0 C2.31 0.66 4.62 1.32 7 2 C6.67 2.99 6.34 3.98 6 5 C4.125 4.75 4.125 4.75 2 4 C0.75 1.9375 0.75 1.9375 0 0 Z " fill="#667584" transform="translate(148,201)"/>
<path d="M0 0 C0.66 0 1.32 0 2 0 C0.55746343 3.36591866 -1.33264727 5.51047079 -4 8 C-2.25 2.25 -2.25 2.25 0 0 Z " fill="#8CA0A7" transform="translate(186,176)"/>
<path d="M0 0 C0.99 0 1.98 0 3 0 C3.66 2.64 4.32 5.28 5 8 C2.27573689 5.64722731 1.1858237 3.37503669 0 0 Z " fill="#9EADB1" transform="translate(93,114)"/>
<path d="M0 0 C4.455 1.98 4.455 1.98 9 4 C5.29847322 4.92538169 4.36541838 5.08174162 1 4 C0.67 2.68 0.34 1.36 0 0 Z " fill="#7D8E94" transform="translate(134,109)"/>
<path d="M0 0 C3.45925163 1.2491742 6.14693203 2.67527795 9 5 C5.625 4.75 5.625 4.75 2 4 C0.5625 1.9375 0.5625 1.9375 0 0 Z " fill="#A9B5BE" transform="translate(27,54)"/>
<path d="M0 0 C2.475 0.495 2.475 0.495 5 1 C5.33 2.65 5.66 4.3 6 6 C5.01 5.67 4.02 5.34 3 5 C3 4.34 3 3.68 3 3 C2.34 3 1.68 3 1 3 C0.67 2.01 0.34 1.02 0 0 Z " fill="#142E38" transform="translate(18,52)"/>
</svg>
